<?xml version="1.0" encoding="utf-8"?>
<!-- Svg Vector Icons : http://www.onlinewebfonts.com/icon -->
<!DOCTYPE svg PUBLIC "-//W3C//DTD SVG 1.1//EN" "http://www.w3.org/Graphics/SVG/1.1/DTD/svg11.dtd">
<svg version="1.1" xmlns="http://www.w3.org/2000/svg" xmlns:xlink="http://www.w3.org/1999/xlink" x="0px" y="0px" viewBox="0 0 1000 1000" enable-background="new 0 0 1000 1000" xml:space="preserve">
<metadata> Svg Vector Icons : http://www.onlinewebfonts.com/icon </metadata>
<g><g transform="translate(0.000000,511.000000) scale(0.100000,-0.100000)"><path d="M2548.8,3008.7C1207.4,2035.6,104.9,1233.1,100,1228.3c-4.9-4.9,412.2-1307.3,926.8-2892.7l939-2885.4H5000h3034.1l934.1,2865.8c512.2,1575.6,931.7,2878,931.7,2890.2c2.4,21.9-4819.5,3539-4885.3,3563.4C5000,4774.6,3890.3,3984.3,2548.8,3008.7z M7226.8,2694.1c1209.8-880.5,2202.4-1614.6,2207.3-1631.7c4.9-26.8-836.6-2646.3-1619.5-5043.9l-63.4-190.2H5000H2246.4l-158.5,495.1c-87.8,270.7-470.7,1451.2-851.2,2621.9L543.9,1074.6l2209.7,1607.3c1214.6,882.9,2224.4,1607.3,2241.5,1607.3C5012.2,4291.7,6017.1,3572.2,7226.8,2694.1z"/></g></g>
</svg>